%TF.GenerationSoftware,KiCad,Pcbnew,7.0.7*%
%TF.CreationDate,2023-10-22T01:08:48-07:00*%
%TF.ProjectId,fpaa_esp32_badge,66706161-5f65-4737-9033-325f62616467,rev?*%
%TF.SameCoordinates,Original*%
%TF.FileFunction,Paste,Bot*%
%TF.FilePolarity,Positive*%
%FSLAX46Y46*%
G04 Gerber Fmt 4.6, Leading zero omitted, Abs format (unit mm)*
G04 Created by KiCad (PCBNEW 7.0.7) date 2023-10-22 01:08:48*
%MOMM*%
%LPD*%
G01*
G04 APERTURE LIST*
G04 Aperture macros list*
%AMRoundRect*
0 Rectangle with rounded corners*
0 $1 Rounding radius*
0 $2 $3 $4 $5 $6 $7 $8 $9 X,Y pos of 4 corners*
0 Add a 4 corners polygon primitive as box body*
4,1,4,$2,$3,$4,$5,$6,$7,$8,$9,$2,$3,0*
0 Add four circle primitives for the rounded corners*
1,1,$1+$1,$2,$3*
1,1,$1+$1,$4,$5*
1,1,$1+$1,$6,$7*
1,1,$1+$1,$8,$9*
0 Add four rect primitives between the rounded corners*
20,1,$1+$1,$2,$3,$4,$5,0*
20,1,$1+$1,$4,$5,$6,$7,0*
20,1,$1+$1,$6,$7,$8,$9,0*
20,1,$1+$1,$8,$9,$2,$3,0*%
%AMRotRect*
0 Rectangle, with rotation*
0 The origin of the aperture is its center*
0 $1 length*
0 $2 width*
0 $3 Rotation angle, in degrees counterclockwise*
0 Add horizontal line*
21,1,$1,$2,0,0,$3*%
G04 Aperture macros list end*
%ADD10RoundRect,0.237500X-0.380070X0.044194X0.044194X-0.380070X0.380070X-0.044194X-0.044194X0.380070X0*%
%ADD11RoundRect,0.237500X-0.250000X-0.237500X0.250000X-0.237500X0.250000X0.237500X-0.250000X0.237500X0*%
%ADD12RoundRect,0.237500X0.250000X0.237500X-0.250000X0.237500X-0.250000X-0.237500X0.250000X-0.237500X0*%
%ADD13RoundRect,0.237500X0.237500X-0.250000X0.237500X0.250000X-0.237500X0.250000X-0.237500X-0.250000X0*%
%ADD14RoundRect,0.237500X-0.300000X-0.237500X0.300000X-0.237500X0.300000X0.237500X-0.300000X0.237500X0*%
%ADD15RoundRect,0.237500X-0.237500X0.250000X-0.237500X-0.250000X0.237500X-0.250000X0.237500X0.250000X0*%
%ADD16RoundRect,0.100000X-0.100000X0.712500X-0.100000X-0.712500X0.100000X-0.712500X0.100000X0.712500X0*%
%ADD17RoundRect,0.237500X-0.237500X0.300000X-0.237500X-0.300000X0.237500X-0.300000X0.237500X0.300000X0*%
%ADD18RoundRect,0.250000X0.475000X-0.337500X0.475000X0.337500X-0.475000X0.337500X-0.475000X-0.337500X0*%
%ADD19RoundRect,0.250000X0.337500X0.475000X-0.337500X0.475000X-0.337500X-0.475000X0.337500X-0.475000X0*%
%ADD20RoundRect,0.100000X-0.637500X-0.100000X0.637500X-0.100000X0.637500X0.100000X-0.637500X0.100000X0*%
%ADD21RoundRect,0.250000X-0.337500X-0.475000X0.337500X-0.475000X0.337500X0.475000X-0.337500X0.475000X0*%
%ADD22RoundRect,0.237500X0.380070X-0.044194X-0.044194X0.380070X-0.380070X0.044194X0.044194X-0.380070X0*%
%ADD23RoundRect,0.237500X0.300000X0.237500X-0.300000X0.237500X-0.300000X-0.237500X0.300000X-0.237500X0*%
%ADD24R,1.400000X0.700000*%
%ADD25R,1.200000X0.700000*%
%ADD26R,0.800000X1.200000*%
%ADD27R,1.900000X1.500000*%
%ADD28RotRect,0.200000X0.200000X225.000000*%
%ADD29R,0.500000X0.500000*%
%ADD30R,1.400000X1.000000*%
%ADD31R,3.200000X1.200000*%
%ADD32R,1.200000X1.200000*%
G04 APERTURE END LIST*
D10*
%TO.C,C1*%
X130200120Y-101498120D03*
X131419880Y-102717880D03*
%TD*%
D11*
%TO.C,R63*%
X94241107Y-89075593D03*
X96066107Y-89075593D03*
%TD*%
D12*
%TO.C,R86*%
X152654000Y-65532000D03*
X150829000Y-65532000D03*
%TD*%
D11*
%TO.C,R66*%
X116205841Y-125790750D03*
X118030841Y-125790750D03*
%TD*%
%TO.C,R16*%
X104485837Y-93795488D03*
X106310837Y-93795488D03*
%TD*%
D13*
%TO.C,R60*%
X139700000Y-55165000D03*
X139700000Y-53340000D03*
%TD*%
D14*
%TO.C,C9*%
X169457064Y-81426761D03*
X171182064Y-81426761D03*
%TD*%
D12*
%TO.C,R88*%
X152654000Y-69596000D03*
X150829000Y-69596000D03*
%TD*%
D15*
%TO.C,R49*%
X136652000Y-67771000D03*
X136652000Y-69596000D03*
%TD*%
%TO.C,R53*%
X141224000Y-67771000D03*
X141224000Y-69596000D03*
%TD*%
D12*
%TO.C,R37*%
X100201359Y-78988856D03*
X98376359Y-78988856D03*
%TD*%
D11*
%TO.C,R94*%
X88840337Y-119587485D03*
X90665337Y-119587485D03*
%TD*%
%TO.C,R15*%
X102567343Y-97555594D03*
X104392343Y-97555594D03*
%TD*%
D12*
%TO.C,R99*%
X100237052Y-110428892D03*
X98412052Y-110428892D03*
%TD*%
%TO.C,R87*%
X152667291Y-67590119D03*
X150842291Y-67590119D03*
%TD*%
%TO.C,R18*%
X115115000Y-119380000D03*
X113290000Y-119380000D03*
%TD*%
D11*
%TO.C,R14*%
X102569000Y-91948000D03*
X104394000Y-91948000D03*
%TD*%
%TO.C,R72*%
X94259951Y-86493938D03*
X96084951Y-86493938D03*
%TD*%
%TO.C,R73*%
X93946500Y-76932000D03*
X95771500Y-76932000D03*
%TD*%
D12*
%TO.C,R98*%
X100237052Y-118048892D03*
X98412052Y-118048892D03*
%TD*%
D16*
%TO.C,U7*%
X112181117Y-126391265D03*
X112831117Y-126391265D03*
X113481117Y-126391265D03*
X114131117Y-126391265D03*
X114131117Y-130616265D03*
X113481117Y-130616265D03*
X112831117Y-130616265D03*
X112181117Y-130616265D03*
%TD*%
D17*
%TO.C,C36*%
X116199195Y-127637311D03*
X116199195Y-129362311D03*
%TD*%
D15*
%TO.C,R21*%
X132080000Y-119380000D03*
X132080000Y-121205000D03*
%TD*%
D18*
%TO.C,C5*%
X119380000Y-90953500D03*
X119380000Y-88878500D03*
%TD*%
D13*
%TO.C,R62*%
X142240000Y-55165000D03*
X142240000Y-53340000D03*
%TD*%
D11*
%TO.C,R64*%
X89759076Y-86437406D03*
X91584076Y-86437406D03*
%TD*%
D15*
%TO.C,R20*%
X129540000Y-119380000D03*
X129540000Y-121205000D03*
%TD*%
D17*
%TO.C,C42*%
X109948329Y-127732964D03*
X109948329Y-129457964D03*
%TD*%
D13*
%TO.C,R41*%
X84582000Y-71016500D03*
X84582000Y-69191500D03*
%TD*%
D11*
%TO.C,R55*%
X99288089Y-59194273D03*
X101113089Y-59194273D03*
%TD*%
D12*
%TO.C,R92*%
X152619608Y-77946149D03*
X150794608Y-77946149D03*
%TD*%
D13*
%TO.C,R42*%
X89662000Y-71016500D03*
X89662000Y-69191500D03*
%TD*%
D19*
%TO.C,C33*%
X128114766Y-112959687D03*
X126039766Y-112959687D03*
%TD*%
D13*
%TO.C,R52*%
X143510000Y-69596000D03*
X143510000Y-67771000D03*
%TD*%
D11*
%TO.C,R93*%
X88928622Y-108325343D03*
X90753622Y-108325343D03*
%TD*%
D12*
%TO.C,R36*%
X100201359Y-84858161D03*
X98376359Y-84858161D03*
%TD*%
D17*
%TO.C,C41*%
X94119523Y-128745196D03*
X94119523Y-130470196D03*
%TD*%
D15*
%TO.C,R44*%
X116332000Y-68175500D03*
X116332000Y-70000500D03*
%TD*%
D11*
%TO.C,R6*%
X100137227Y-126945920D03*
X101962227Y-126945920D03*
%TD*%
D13*
%TO.C,R59*%
X109397191Y-63590823D03*
X109397191Y-61765823D03*
%TD*%
D11*
%TO.C,R11*%
X94746892Y-105551607D03*
X96571892Y-105551607D03*
%TD*%
D17*
%TO.C,C38*%
X94729596Y-101815303D03*
X94729596Y-103540303D03*
%TD*%
D20*
%TO.C,U6*%
X89779000Y-83962000D03*
X89779000Y-83312000D03*
X89779000Y-82662000D03*
X89779000Y-82012000D03*
X89779000Y-81362000D03*
X89779000Y-80712000D03*
X89779000Y-80062000D03*
X95504000Y-80062000D03*
X95504000Y-80712000D03*
X95504000Y-81362000D03*
X95504000Y-82012000D03*
X95504000Y-82662000D03*
X95504000Y-83312000D03*
X95504000Y-83962000D03*
%TD*%
D13*
%TO.C,R57*%
X106339890Y-63429805D03*
X106339890Y-61604805D03*
%TD*%
D14*
%TO.C,C8*%
X161798000Y-87630000D03*
X163523000Y-87630000D03*
%TD*%
D11*
%TO.C,R61*%
X140237933Y-51223259D03*
X142062933Y-51223259D03*
%TD*%
D16*
%TO.C,U9*%
X90465000Y-100757500D03*
X91115000Y-100757500D03*
X91765000Y-100757500D03*
X92415000Y-100757500D03*
X92415000Y-104982500D03*
X91765000Y-104982500D03*
X91115000Y-104982500D03*
X90465000Y-104982500D03*
%TD*%
D10*
%TO.C,C3*%
X127735026Y-104165185D03*
X128954786Y-105384945D03*
%TD*%
D21*
%TO.C,C10*%
X168105000Y-86360000D03*
X170180000Y-86360000D03*
%TD*%
D15*
%TO.C,R45*%
X126238000Y-68175500D03*
X126238000Y-70000500D03*
%TD*%
D11*
%TO.C,R65*%
X89779000Y-76932000D03*
X91604000Y-76932000D03*
%TD*%
%TO.C,R9*%
X101986520Y-130525535D03*
X103811520Y-130525535D03*
%TD*%
D13*
%TO.C,R46*%
X118808500Y-70000500D03*
X118808500Y-68175500D03*
%TD*%
%TO.C,R56*%
X101599998Y-63500000D03*
X101599998Y-61675000D03*
%TD*%
D15*
%TO.C,R50*%
X145796000Y-67771000D03*
X145796000Y-69596000D03*
%TD*%
D21*
%TO.C,C7*%
X129832450Y-91931541D03*
X131907450Y-91931541D03*
%TD*%
D12*
%TO.C,R89*%
X152654000Y-71628000D03*
X150829000Y-71628000D03*
%TD*%
D11*
%TO.C,R38*%
X89721388Y-89019060D03*
X91546388Y-89019060D03*
%TD*%
%TO.C,R100*%
X93870834Y-119994759D03*
X95695834Y-119994759D03*
%TD*%
D15*
%TO.C,R39*%
X82042000Y-69191500D03*
X82042000Y-71016500D03*
%TD*%
D11*
%TO.C,R12*%
X96804182Y-101696424D03*
X98629182Y-101696424D03*
%TD*%
D12*
%TO.C,R97*%
X100197056Y-113182167D03*
X98372056Y-113182167D03*
%TD*%
D11*
%TO.C,R10*%
X94697964Y-99838748D03*
X96522964Y-99838748D03*
%TD*%
D12*
%TO.C,R35*%
X100142925Y-81003692D03*
X98317925Y-81003692D03*
%TD*%
D11*
%TO.C,R13*%
X96841059Y-103614059D03*
X98666059Y-103614059D03*
%TD*%
D12*
%TO.C,R91*%
X152619608Y-75946000D03*
X150794608Y-75946000D03*
%TD*%
%TO.C,R34*%
X100157558Y-82974727D03*
X98332558Y-82974727D03*
%TD*%
D10*
%TO.C,C29*%
X126370687Y-105630560D03*
X127590447Y-106850320D03*
%TD*%
D12*
%TO.C,R17*%
X119380000Y-119410000D03*
X117555000Y-119410000D03*
%TD*%
D11*
%TO.C,R19*%
X104436362Y-95659049D03*
X106261362Y-95659049D03*
%TD*%
D12*
%TO.C,R96*%
X100237052Y-115508892D03*
X98412052Y-115508892D03*
%TD*%
%TO.C,R90*%
X152654000Y-73914000D03*
X150829000Y-73914000D03*
%TD*%
%TO.C,R81*%
X136802500Y-95504000D03*
X134977500Y-95504000D03*
%TD*%
D11*
%TO.C,R8*%
X101956055Y-128697646D03*
X103781055Y-128697646D03*
%TD*%
D22*
%TO.C,C4*%
X119126000Y-93980000D03*
X117906240Y-92760240D03*
%TD*%
D15*
%TO.C,R43*%
X87122000Y-69191500D03*
X87122000Y-71016500D03*
%TD*%
D13*
%TO.C,R47*%
X123761500Y-70000500D03*
X123761500Y-68175500D03*
%TD*%
D23*
%TO.C,C37*%
X115015000Y-121920000D03*
X113290000Y-121920000D03*
%TD*%
D17*
%TO.C,C35*%
X100132674Y-128764783D03*
X100132674Y-130489783D03*
%TD*%
D20*
%TO.C,U5*%
X89432052Y-116808892D03*
X89432052Y-116158892D03*
X89432052Y-115508892D03*
X89432052Y-114858892D03*
X89432052Y-114208892D03*
X89432052Y-113558892D03*
X89432052Y-112908892D03*
X95157052Y-112908892D03*
X95157052Y-113558892D03*
X95157052Y-114208892D03*
X95157052Y-114858892D03*
X95157052Y-115508892D03*
X95157052Y-116158892D03*
X95157052Y-116808892D03*
%TD*%
D22*
%TO.C,C2*%
X130183190Y-104112670D03*
X128963430Y-102892910D03*
%TD*%
D23*
%TO.C,C34*%
X128012188Y-115335947D03*
X126287188Y-115335947D03*
%TD*%
D15*
%TO.C,R40*%
X92202000Y-69191500D03*
X92202000Y-71016500D03*
%TD*%
D13*
%TO.C,R54*%
X98566444Y-63469330D03*
X98566444Y-61644330D03*
%TD*%
D11*
%TO.C,R7*%
X100114379Y-132345807D03*
X101939379Y-132345807D03*
%TD*%
D17*
%TO.C,C39*%
X102569000Y-93879500D03*
X102569000Y-95604500D03*
%TD*%
D13*
%TO.C,R51*%
X138938000Y-69596000D03*
X138938000Y-67771000D03*
%TD*%
D11*
%TO.C,R58*%
X107027873Y-58588509D03*
X108852873Y-58588509D03*
%TD*%
D16*
%TO.C,U8*%
X96094000Y-127508000D03*
X96744000Y-127508000D03*
X97394000Y-127508000D03*
X98044000Y-127508000D03*
X98044000Y-131733000D03*
X97394000Y-131733000D03*
X96744000Y-131733000D03*
X96094000Y-131733000D03*
%TD*%
D15*
%TO.C,R5*%
X127000000Y-119380000D03*
X127000000Y-121205000D03*
%TD*%
D17*
%TO.C,C40*%
X88110495Y-101642703D03*
X88110495Y-103367703D03*
%TD*%
D11*
%TO.C,R69*%
X118050778Y-129334299D03*
X119875778Y-129334299D03*
%TD*%
%TO.C,R67*%
X116230029Y-131160496D03*
X118055029Y-131160496D03*
%TD*%
D15*
%TO.C,R48*%
X121285000Y-68175500D03*
X121285000Y-70000500D03*
%TD*%
D16*
%TO.C,U10*%
X98674421Y-92568496D03*
X99324421Y-92568496D03*
X99974421Y-92568496D03*
X100624421Y-92568496D03*
X100624421Y-96793496D03*
X99974421Y-96793496D03*
X99324421Y-96793496D03*
X98674421Y-96793496D03*
%TD*%
D11*
%TO.C,R68*%
X118015967Y-127561000D03*
X119840967Y-127561000D03*
%TD*%
D12*
%TO.C,R101*%
X95695834Y-122534759D03*
X93870834Y-122534759D03*
%TD*%
D11*
%TO.C,R102*%
X93332052Y-110368892D03*
X95157052Y-110368892D03*
%TD*%
D17*
%TO.C,C12*%
X96734350Y-94001300D03*
X96734350Y-95726300D03*
%TD*%
D11*
%TO.C,R95*%
X88945322Y-110187630D03*
X90770322Y-110187630D03*
%TD*%
D24*
%TO.C,J6*%
X156322277Y-68345000D03*
X156322277Y-69445000D03*
X156322277Y-70545000D03*
X156322277Y-71645000D03*
X156322277Y-72745000D03*
X156322277Y-73845000D03*
X156322277Y-74945000D03*
X156322277Y-76045000D03*
D25*
X156222277Y-76995000D03*
D26*
X166722277Y-77845000D03*
D27*
X171322277Y-64545000D03*
D28*
X171772277Y-65295000D03*
D29*
X172022277Y-65545000D03*
D30*
X156322277Y-66445000D03*
D31*
X170322277Y-77845000D03*
D32*
X160522277Y-77845000D03*
%TD*%
M02*
