M48
; DRILL file {KiCad 7.0.7} date 2023 October 22, Sunday 01:08:52
; FORMAT={-:-/ absolute / inch / decimal}
; #@! TF.CreationDate,2023-10-22T01:08:52-07:00
; #@! TF.GenerationSoftware,Kicad,Pcbnew,7.0.7
; #@! TF.FileFunction,Plated,1,4,PTH
FMAT,2
INCH
; #@! TA.AperFunction,Plated,PTH,ViaDrill
T1C0.0157
; #@! TA.AperFunction,Plated,PTH,ComponentDrill
T2C0.0157
; #@! TA.AperFunction,Plated,PTH,ComponentDrill
T3C0.0236
; #@! TA.AperFunction,Plated,PTH,ComponentDrill
T4C0.0319
; #@! TA.AperFunction,Plated,PTH,ComponentDrill
T5C0.0394
; #@! TA.AperFunction,Plated,PTH,ComponentDrill
T6C0.0433
; #@! TA.AperFunction,Plated,PTH,ComponentDrill
T7C0.0591
; #@! TA.AperFunction,Plated,PTH,ComponentDrill
T8C0.0669
%
G90
G05
T1
X3.0281Y-1.59
X3.06Y-1.75
X3.096Y-1.59
X3.13Y-4.06
X3.21Y-3.41
X3.21Y-3.71
X3.21Y-3.9
X3.21Y-4.2
X3.21Y-4.422
X3.21Y-4.57
X3.214Y-3.4642
X3.22Y-3.56
X3.22Y-4.02
X3.22Y-4.1
X3.22Y-4.6646
X3.22Y-4.91
X3.22Y-4.97
X3.22Y-5.07
X3.22Y-5.23
X3.25Y-4.53
X3.29Y-3.11
X3.36Y-3.68
X3.36Y-3.98
X3.36Y-4.1046
X3.38Y-3.44
X3.38Y-4.4245
X3.38Y-4.67
X3.38Y-4.93
X3.38Y-5.14
X3.42Y-4.09
X3.45Y-2.84
X3.45Y-4.68
X3.46Y-4.48
X3.46Y-5.0
X3.4697Y-4.5601
X3.47Y-3.19
X3.47Y-3.27
X3.47Y-3.79
X3.5Y-4.2
X3.53Y-3.09
X3.54Y-3.56
X3.54Y-3.9
X3.565Y-4.065
X3.57Y-4.6
X3.6Y-3.15
X3.61Y-4.67
X3.62Y-3.29
X3.62Y-3.89
X3.63Y-4.06
X3.63Y-4.44
X3.63Y-4.51
X3.64Y-3.17
X3.65Y-4.5685
X3.65Y-5.13
X3.67Y-3.99
X3.76Y-3.09
X3.76Y-3.8
X3.76Y-4.96
X3.8Y-4.38
X3.81Y-4.49
X3.81Y-4.54
X3.81Y-4.66
X3.82Y-3.21
X3.82Y-3.26
X3.82Y-4.92
X3.83Y-3.43
X3.84Y-3.65
X3.86Y-3.57
X3.87Y-4.94
X3.87Y-5.12
X3.89Y-3.74
X3.9Y-4.9979
X3.93Y-2.47
X3.93Y-3.88
X3.98Y-2.28
X3.986Y-3.62
X4.02Y-4.62
X4.03Y-4.34
X4.05Y-3.13
X4.06Y-2.85
X4.1Y-4.56
X4.11Y-4.0275
X4.12Y-3.25
X4.15Y-3.3
X4.16Y-4.55
X4.19Y-4.0
X4.2Y-3.35
X4.21Y-5.08
X4.22Y-2.54
X4.25Y-2.5
X4.26Y-4.07
X4.31Y-4.07
X4.36Y-4.95
X4.38Y-3.25
X4.38Y-5.09
X4.4Y-4.9
X4.41Y-3.28
X4.41Y-4.3
X4.43Y-2.4317
X4.43Y-5.04
X4.45Y-4.3
X4.46Y-4.75
X4.49Y-5.06
X4.53Y-4.9524
X4.56Y-4.28
X4.58Y-4.39
X4.63Y-3.61
X4.64Y-4.29
X4.68Y-4.42
X4.69Y-3.74
X4.71Y-4.75
X4.78Y-3.19
X4.79Y-2.8
X4.83Y-4.66
X4.8505Y-4.6005
X4.89Y-5.09
X4.94Y-4.5
X4.97Y-4.1
X4.98Y-3.45
X5.0Y-4.05
X5.03Y-4.02
X5.03Y-4.5
X5.05Y-4.18
X5.07Y-3.99
X5.09Y-3.4
X5.1Y-4.12
X5.1246Y-1.58
X5.15Y-4.07
X5.16Y-5.21
X5.17Y-1.73
X5.19Y-3.75
X5.1915Y-1.58
X5.21Y-3.6715
X5.24Y-3.63
X5.2498Y-4.5098
X5.26Y-4.66
X5.28Y-3.79
X5.31Y-3.06
X5.39Y-4.57
X5.51Y-4.56
X5.51Y-5.15
X5.53Y-2.79
X5.55Y-2.17
X5.67Y-4.58
X5.7299Y-4.438
X5.73Y-4.34
X5.77Y-2.82
X5.85Y-2.67
X5.85Y-4.3
X5.89Y-2.87
X5.9Y-3.03
X5.92Y-2.48
X5.93Y-4.74
X5.94Y-2.21
X5.94Y-2.26
X5.95Y-2.16
X5.95Y-3.2
X5.9615Y-4.86
X5.9802Y-2.5202
X5.99Y-2.05
X5.9974Y-1.61
X6.02Y-1.76
X6.0598Y-2.3598
X6.07Y-2.82
X6.08Y-2.91
X6.09Y-1.62
X6.09Y-2.6
X6.11Y-2.54
X6.11Y-3.38
X6.11Y-4.54
X6.12Y-4.87
X6.13Y-2.02
X6.13Y-4.13
X6.14Y-4.19
X6.16Y-3.11
X6.16Y-3.38
X6.16Y-4.25
X6.18Y-3.57
X6.18Y-3.63
X6.18Y-4.31
X6.21Y-2.42
X6.21Y-2.8
X6.21Y-3.03
X6.22Y-2.21
X6.22Y-2.69
X6.22Y-2.74
X6.22Y-2.87
X6.22Y-2.97
X6.22Y-3.73
X6.22Y-4.35
X6.24Y-5.11
X6.28Y-2.12
X6.2809Y-2.5995
X6.29Y-2.23
X6.3Y-2.4
X6.31Y-2.08
X6.32Y-4.91
X6.32Y-4.97
X6.37Y-3.49
X6.38Y-3.68
X6.39Y-4.86
X6.4Y-2.09
X6.43Y-2.21
X6.44Y-2.3
X6.44Y-3.39
X6.4673Y-3.7022
X6.48Y-4.76
X6.49Y-5.2
X6.5052Y-2.1752
X6.51Y-4.97
X6.54Y-4.35
X6.55Y-2.26
X6.56Y-4.65
X6.57Y-2.97
X6.59Y-3.52
X6.59Y-3.59
X6.6Y-2.08
X6.62Y-5.02
X6.62Y-5.18
X6.64Y-3.17
X6.66Y-3.36
X6.67Y-2.64
X6.68Y-3.14
X6.69Y-2.22
X6.7Y-2.35
X6.71Y-2.69
X6.72Y-2.09
X6.7334Y-4.0834
X6.74Y-3.36
T4
X3.2Y-2.3
X3.2Y-2.6
X3.7Y-2.3
X3.7Y-2.6
X4.5053Y-2.2714
X4.5053Y-2.5714
X5.0053Y-2.2714
X5.0053Y-2.5714
X5.3Y-2.2689
X5.3Y-2.5689
X5.8Y-2.2689
X5.8Y-2.5689
T5
X3.0Y-3.4
X3.0Y-3.5
X3.0Y-3.6
X3.0Y-3.7
X3.0Y-3.9
X3.0Y-4.0
X3.0Y-4.1
X3.0Y-4.2
X3.0Y-4.4
X3.0Y-4.5
X3.0Y-4.6
X3.0Y-4.7
X3.0Y-4.9
X3.0Y-5.0
X3.0Y-5.1
X3.0Y-5.2
X3.2Y-4.31
X3.3Y-4.31
X3.9Y-2.0808
X4.3Y-2.0862
X5.0Y-4.9
X5.0Y-5.0
X5.1Y-4.9
X5.1Y-5.0
X5.158Y-1.8656
X5.2Y-4.9
X5.2Y-5.0
X5.5Y-3.0
X5.5Y-3.1
X5.5Y-3.2
X5.5Y-3.3
X5.5Y-3.4
X5.5Y-3.5
X5.5Y-3.6
X5.5Y-3.7
X5.5Y-3.8
X5.5Y-3.9
X5.5Y-4.0
X5.5Y-4.1
X5.7119Y-5.1637
X5.8119Y-5.1637
X5.9119Y-5.1637
X6.0119Y-5.1637
X6.1119Y-5.1637
X6.17Y-1.51
X6.17Y-1.61
X6.4709Y-4.146
X6.5709Y-4.146
X6.6709Y-4.146
T6
X3.5Y-1.71
X4.7Y-1.71
X5.5978Y-1.7178
T7
X3.3022Y-1.5122
X3.3022Y-1.9078
X3.6978Y-1.5122
X3.6978Y-1.9078
X5.4Y-1.52
X5.4Y-1.9157
X5.7957Y-1.52
X5.7957Y-1.9157
T8
X4.5022Y-1.5122
X4.5022Y-1.9078
X4.8978Y-1.5122
X4.8978Y-1.9078
T2
G00X3.8995Y-1.7724
M15
G01X3.8995Y-1.8117
M16
G05
G00X4.116Y-1.5952
M15
G01X4.0766Y-1.5952
M16
G05
G00X4.2932Y-1.8117
M15
G01X4.2932Y-1.7724
M16
G05
G00X6.306Y-1.7756
M15
G01X6.306Y-1.815
M16
G05
G00X6.5225Y-1.5984
M15
G01X6.4832Y-1.5984
M16
G05
G00X6.6997Y-1.815
M15
G01X6.6997Y-1.7756
M16
G05
T3
G00X6.5561Y-4.9299
M15
G01X6.5994Y-4.9299
M16
G05
G00X6.5561Y-5.2701
M15
G01X6.5994Y-5.2701
M16
G05
G00X6.7266Y-4.9299
M15
G01X6.7581Y-4.9299
M16
G05
G00X6.7266Y-5.2701
M15
G01X6.7581Y-5.2701
M16
G05
T0
M30
